ASP_TEAHUPOO_2009.MPG
Format                           : MPEG-PS
File size                        : 621 MiB
Duration                         : 37mn 7s
Overall bit rate                 : 2 340 Kbps

Video
ID                               : 224 (0xE0)
Format                           : MPEG Video
Format version                   : Version 2
Format profile                   : Main@Main
Format settings, BVOP            : Yes
Format settings, Matrix          : Default
Duration                         : 37mn 7s
Bit rate mode                    : Variable
Bit rate                         : 1 992 Kbps
Nominal bit rate                 : 9 549 Kbps
Width                            : 704 pixels
Height                           : 576 pixels
Display aspect ratio             : 4:3
Frame rate                       : 25.000 fps
Standard                         : PAL
Resolution                       : 8 bits
Colorimetry                      : 4:2:0
Scan type                        : Interlaced
Scan order                       : Top Field First
Bits/(Pixel*Frame)               : 0.196
Stream size                      : 529 MiB (85%)

Audio
ID                               : 128 (0x80)
Format                           : AC-3
Format/Info                      : Audio Coding 3
Duration                         : 37mn 7s
Bit rate mode                    : Constant
Bit rate                         : 256 Kbps
Channel(s)                       : 2 channels
Channel positions                : L R
Sampling rate                    : 48.0 KHz
Stream size                      : 68.0 MiB (11%)